HIERARCHY
ROOT Hips
{
 OFFSET 0.000000 0.000000 0.000000
 CHANNELS 6 Xposition Yposition Zposition Yrotation Xrotation Zrotation
 JOINT Chest
 {
  OFFSET 0.000000 9.585900 0.002600
  CHANNELS 3 Yrotation Xrotation Zrotation
  JOINT Chest2
  {
   OFFSET 0.000000 9.601200 -0.005300
   CHANNELS 3 Yrotation Xrotation Zrotation
   JOINT Chest3
   {
    OFFSET 0.000000 9.561800 0.000000
    CHANNELS 3 Yrotation Xrotation Zrotation
    JOINT Chest4
    {
     OFFSET 0.000000 9.552100 0.000000
     CHANNELS 3 Yrotation Xrotation Zrotation
     JOINT Neck
     {
      OFFSET 0.000000 14.453000 0.000000
      CHANNELS 3 Yrotation Xrotation Zrotation
      JOINT Head
      {
       OFFSET 0.000000 8.936500 -0.011300
       CHANNELS 3 Yrotation Xrotation Zrotation
       End Site
       {
        OFFSET 0.000000 17.073600 -0.006000
       }
      }
     }
     JOINT RightCollar
     {
      OFFSET -2.921100 9.558500 0.000000
      CHANNELS 3 Yrotation Xrotation Zrotation
      JOINT RightShoulder
      {
       OFFSET -13.519700 0.000000 0.000000
       CHANNELS 3 Yrotation Xrotation Zrotation
       JOINT RightElbow
       {
        OFFSET 0.000000 -29.696600 0.000000
        CHANNELS 3 Yrotation Xrotation Zrotation
        JOINT RightWrist
        {
         OFFSET 0.000000 -24.004700 0.000000
         CHANNELS 3 Yrotation Xrotation Zrotation
         End Site
         {
          OFFSET 0.000000 -17.728500 0.000000
         }
        }
       }
      }
     }
     JOINT LeftCollar
     {
      OFFSET 2.921100 9.558500 0.000000
      CHANNELS 3 Yrotation Xrotation Zrotation
      JOINT LeftShoulder
      {
       OFFSET 13.519700 0.000000 0.000000
       CHANNELS 3 Yrotation Xrotation Zrotation
       JOINT LeftElbow
       {
        OFFSET 0.000000 -29.696600 0.000000
        CHANNELS 3 Yrotation Xrotation Zrotation
        JOINT LeftWrist
        {
         OFFSET 0.000000 -24.004700 0.000000
         CHANNELS 3 Yrotation Xrotation Zrotation
         End Site
         {
          OFFSET 0.000000 -17.728500 0.000000
         }
        }
       }
      }
     }
    }
   }
  }
 }
 JOINT RightHip
 {
  OFFSET -7.771700 -0.012900 -0.001300
  CHANNELS 3 Yrotation Xrotation Zrotation
  JOINT RightKnee
  {
   OFFSET 0.000000 -40.869800 0.001200
   CHANNELS 3 Yrotation Xrotation Zrotation
   JOINT RightAnkle
   {
    OFFSET 0.000000 -39.717900 0.002100
    CHANNELS 3 Yrotation Xrotation Zrotation
    JOINT RightToe
    {
     OFFSET 0.000000 -4.965400 11.033500
     CHANNELS 3 Yrotation Xrotation Zrotation
     End Site
     {
      OFFSET 0.000000 -1.423100 5.872300
     }
    }
   }
  }
 }
 JOINT LeftHip
 {
  OFFSET 7.771700 -0.012900 -0.001300
  CHANNELS 3 Yrotation Xrotation Zrotation
  JOINT LeftKnee
  {
   OFFSET 0.000000 -40.869800 0.001200
   CHANNELS 3 Yrotation Xrotation Zrotation
   JOINT LeftAnkle
   {
    OFFSET 0.000000 -39.717900 0.002100
    CHANNELS 3 Yrotation Xrotation Zrotation
    JOINT LeftToe
    {
     OFFSET 0.000000 -4.965400 11.033500
     CHANNELS 3 Yrotation Xrotation Zrotation
     End Site
     {
      OFFSET 0.000000 -1.423100 5.872300
     }
    }
   }
  }
 }
}
MOTION
Frames: 9
Frame Time: 0.008333
0.000000 85.388000 0.000000 0.000000 -5.767877 0.000000 0.000000 11.653817 0.000000 0.000000 -5.885947 0.000000 0.000000 -0.000000 0.000000 0.000000 -0.000000 0.000000 0.000000 12.528835 0.000000 0.000000 0.711642 0.000000 0.000000 -0.000000 0.000000 0.000000 0.000000 -90.000000 0.000000 -2.309062 0.000000 0.000000 2.309062 0.000000 0.000000 -0.000000 0.000000 0.000000 -0.000000 90.000000 0.000000 -2.309062 0.000000 0.000000 2.309062 0.000000 0.000000 8.520406 0.000000 0.000000 1.905762 0.000000 -0.000000 -4.658285 0.000000 0.000000 -0.000000 0.000000 0.000000 8.520406 0.000000 0.000000 1.905762 0.000000 -0.000000 -4.658285 0.000000 0.000000 -0.000000 0.000000
-14.962591 55.364994 25.521160 -174.050651 -31.742092 -10.462108 -2.268049 13.099904 4.943110 -1.165385 7.614715 2.391134 -1.433060 9.505309 2.975344 -1.184093 7.598547 2.394930 2.900537 20.545848 0.313148 3.027556 -3.874406 -0.328438 -1.446367 -0.267550 -3.674015 -10.545479 -13.444931 4.731587 24.366178 -74.461953 -6.467296 11.336010 -5.005806 -17.688758 -14.175220 -0.655926 -4.117483 0.586951 -21.302198 26.270915 4.636547 -64.710148 -0.138939 26.956813 -31.277785 6.793123 -19.489056 -34.466015 2.586491 -7.137131 87.457010 -11.891013 0.065599 -18.255853 3.036549 -0.017708 0.521487 -0.022739 -13.338488 -45.843637 11.505348 174.799804 80.306024 168.844009 -3.463866 -17.634459 4.070099 -0.109083 -0.974100 -0.073904
-14.966798 55.363683 25.523370 -174.007245 -31.689757 -10.459511 -2.210573 13.126418 4.930376 -1.156413 7.612076 2.386775 -1.398390 9.522091 2.965746 -1.156428 7.612127 2.386803 2.539521 20.189439 0.450709 2.603968 -4.295361 -0.099675 -1.422412 -0.274742 -3.687522 -10.699527 -13.321052 4.833377 24.418533 -74.484220 -6.605815 11.220475 -5.097074 -17.879878 -14.145047 -0.623903 -4.139643 0.706711 -21.222906 25.946338 3.874101 -65.190120 0.406357 26.798488 -31.041519 6.934098 -19.543976 -34.515335 2.569854 -7.098541 87.463181 -11.852631 0.072138 -18.264709 3.030674 -0.017555 0.523899 -0.023716 -13.379932 -45.902516 11.458891 174.656255 80.308589 168.716378 -3.458242 -17.618509 4.060401 -0.102567 -0.979315 -0.079992
-14.951975 55.361053 25.531887 -173.925830 -31.576119 -10.586300 -2.187046 13.088557 5.034405 -1.130013 7.623087 2.381516 -1.365346 9.535699 2.959758 -1.130076 7.623167 2.381583 2.189427 19.836432 0.580816 2.195961 -4.707397 0.117998 -1.399910 -0.285575 -3.701626 -10.838780 -13.187601 4.930234 24.454567 -74.502422 -6.738986 11.107784 -5.192700 -18.101791 -14.118990 -0.588593 -4.160855 0.827006 -21.138007 25.596171 3.163250 -65.658725 0.919050 26.627631 -30.772461 7.064436 -19.721515 -34.565031 2.715187 -7.161453 87.443363 -11.906842 0.080457 -18.257922 3.018505 -0.018277 0.522473 -0.029645 -13.612085 -46.086241 11.625616 174.709293 80.223898 168.784195 -3.393798 -17.375223 4.051056 -0.134421 -1.206481 -0.096604
-14.954275 55.362173 25.529828 -173.893696 -31.537755 -10.589101 -2.127335 13.113722 5.038882 -1.105447 7.631265 2.378362 -1.334611 9.545746 2.956341 -1.105522 7.631307 2.378438 1.852617 19.490872 0.705453 1.805331 -5.106131 0.326092 -1.376994 -0.299593 -3.708471 -10.962332 -13.052405 5.015886 24.459333 -74.514322 -6.850091 10.995968 -5.290163 -18.359849 -14.092336 -0.548132 -4.176231 0.945996 -21.044743 25.218178 2.557479 -66.120350 1.351629 26.448195 -30.467187 7.173066 -19.759340 -34.594452 2.706418 -7.114619 87.447551 -11.856601 0.086741 -18.268187 3.014219 -0.020792 0.523619 -0.029028 -13.655134 -46.129873 11.591801 174.590804 80.221543 168.682043 -3.377017 -17.351095 4.027814 -0.132467 -1.225874 -0.095090
-14.960234 55.359171 25.532692 -173.797579 -31.444689 -10.599489 -2.130836 13.091884 5.023289 -1.084411 7.636743 2.376130 -1.308312 9.552399 2.953911 -1.084470 7.636713 2.376173 1.533215 19.158038 0.825741 1.435978 -5.486089 0.525034 -1.348545 -0.312366 -3.705263 -11.082843 -12.922018 5.089060 24.445224 -74.520591 -6.944565 10.882138 -5.388560 -18.656436 -14.063348 -0.504313 -4.191072 1.067014 -20.939752 24.815102 2.080595 -66.575380 1.685383 26.258601 -30.125501 7.257113 -19.844933 -34.675419 2.683903 -7.043070 87.459214 -11.782495 0.080258 -18.284701 3.019214 -0.021536 0.524568 -0.026936 -13.752346 -46.230912 11.542422 174.458572 80.226120 168.558551 -3.367586 -17.323630 4.009333 -0.129856 -1.230274 -0.091918
-14.942978 55.358865 25.536117 -173.688163 -31.333909 -10.757616 -2.165623 13.030967 5.142979 -1.016627 7.669225 2.375745 -1.286645 9.556468 2.952623 -1.067100 7.640052 2.374872 1.233289 18.841948 0.941207 1.089967 -5.843304 0.714120 -1.315335 -0.320123 -3.694868 -11.202530 -12.801266 5.149265 24.436694 -74.522304 -7.045339 10.766072 -5.484803 -18.988139 -14.034069 -0.458313 -4.212579 1.190358 -20.824102 24.393489 1.710203 -67.019388 1.933648 26.052801 -29.750823 7.334925 -20.038503 -34.701466 2.843396 -7.116902 87.433736 -11.842027 0.084275 -18.277501 3.018987 -0.027988 0.517339 -0.034326 -14.065066 -46.409500 11.724707 174.322733 80.105280 168.418808 -3.222203 -17.052841 3.993940 -0.244842 -1.508022 -0.136120
-14.931697 55.365755 25.525833 -173.645197 -31.322562 -10.857032 -2.130507 13.054705 5.235632 -0.953660 7.697041 2.377108 -1.268640 9.558893 2.951953 -1.052650 7.642088 2.374088 0.955363 18.544636 1.052222 0.769543 -6.176044 0.893272 -1.277939 -0.321761 -3.677736 -11.316440 -12.693006 5.197283 24.445974 -74.519045 -7.164498 10.655292 -5.567659 -19.352782 -14.001100 -0.404714 -4.238601 1.314186 -20.704663 23.962729 1.396259 -67.450407 2.127487 25.816474 -29.346370 7.433746 -20.118343 -34.651064 2.930902 -7.118482 87.413824 -11.827620 0.090369 -18.279453 3.009924 -0.027375 0.511326 -0.031991 -14.216375 -46.446477 11.817442 174.224940 80.028217 168.311277 -3.073870 -16.914822 4.004830 -0.367611 -1.677675 -0.185491
-14.939059 55.366303 25.520106 -173.585424 -31.267424 -10.853924 -2.092687 13.056393 5.229936 -0.996324 7.667631 2.375557 -1.202811 9.586246 2.945212 -1.041303 7.642750 2.373394 0.701501 18.267210 1.158482 0.476582 -6.483715 1.061651 -1.236519 -0.314296 -3.652881 -11.421712 -12.603953 5.236909 24.451310 -74.505943 -7.281764 10.556214 -5.625915 -19.753005 -13.962297 -0.339892 -4.268198 1.429196 -20.584140 23.535491 1.059024 -67.864731 2.348144 25.544568 -28.916051 7.559943 -20.160343 -34.696809 2.897981 -7.044005 87.429863 -11.748533 0.089894 -18.300784 3.012167 -0.026159 0.512854 -0.025977 -14.261622 -46.496214 11.761476 174.210723 80.043346 168.309165 -3.071237 -16.912338 3.982972 -0.349467 -1.670107 -0.168399
